<svg xmlns="http://www.w3.org/2000/svg" version="1.1" xmlns:xlink="http://www.w3.org/1999/xlink" xmlns:svgjs="http://svgjs.dev/svgjs" width="540" height="360" preserveAspectRatio="none" viewBox="0 0 540 360"><g mask="url(&quot;#SvgjsMask1023&quot;)" fill="none"><path d="M270 333.58C316.53 334.18 366.29 341.7 402.62 312.62 441.89 281.16 461.51 230.31 461.69 180 461.86 129.53 441.89 79.28 403.58 46.42 367.53 15.46 317.39 11.92 270 15.51 226.79 18.78 186.42 35.13 155.25 65.25 123.5 95.94 102.43 135.93 99.81 180 97.01 226.9 105.84 277.79 140.73 309.27 174.56 339.81 224.42 332.99 270 333.58" fill="rgba(139, 207, 23, 1)"></path><path d="M270 249.81C291.15 250.08 313.77 253.5 330.28 240.28 348.13 225.98 357.05 202.87 357.13 180 357.21 157.06 348.13 134.22 330.72 119.28 314.33 105.21 291.54 103.6 270 105.23 250.36 106.72 232.01 114.15 217.84 127.84 203.41 141.79 193.83 159.97 192.64 180 191.37 201.32 195.38 224.45 211.24 238.76 226.62 252.64 249.28 249.54 270 249.81" fill="rgba(100, 75, 118, 1)"></path></g><defs><mask id="SvgjsMask1023"><rect width="540" height="360" fill="#ffffff"></rect></mask></defs></svg>